<?xml version="1.0" encoding="utf-8"?>
<!-- Generator: Adobe Illustrator 25.2.1, SVG Export Plug-In . SVG Version: 6.00 Build 0)  -->
<svg version="1.1" id="メガネ" xmlns="http://www.w3.org/2000/svg" xmlns:xlink="http://www.w3.org/1999/xlink" x="0px" y="0px"
	 viewBox="0 0 686.1 360" style="enable-background:new 0 0 686.1 360;" xml:space="preserve">
<style type="text/css">
	.st0{fill:#FFFFFF;}
</style>
<path class="st0" d="M223.2,268v13.6c-9.8,0.6-20,0.8-30.1,0.6c1-0.9,1.9-1.8,2.7-2.7c2.8-3.3,4.8-7,6-10.9
	C209,268.7,216.2,268.5,223.2,268z M110.3,269.7c6.1,1.9,15.8,4.7,28.9,7.1V261c-8-1.8-14.3-3.5-18.2-4.9c-0.2-0.1-0.3-0.1-0.5-0.2
	c-0.6,1.3-1.5,2.5-2.8,3.3c-1.4,0.9-2.9,1.4-4.5,1.4c-1,0-2-0.2-2.9-0.5l-0.9-0.4c-0.2-0.1-0.4-0.2-0.6-0.3
	c-6.6-3.2-13-5.1-18.6-5.5C95.4,261.6,100.7,266.7,110.3,269.7z M654.9,119.6c-2-2.8-5.6-4.8-12.2-5.8c-21.4-3.2-42.9-6.9-64.4-8.4
	c-14.4-1-29.1-1.6-43.5-1.3c-56,1.2-116.2,12.8-127.4,16.9c-11.1,4.1-37.9,13.2-45.7,14.8c-7.8,1.7-14,1.2-14,1.2s-6.2,0.4-14-1.2
	s-34.6-10.7-45.8-14.8c-11.1-4.1-71.3-15.6-127.3-16.9c-36-0.8-74.7,2-109.8,10.5c-13.3,3.2-12.7,9.2-11.7,21.4
	c0.6,7.1,1,14.2,1.6,21.3c0,0,1.6,4.1,2.1,5.4c0.4,1.2,5.8,7.8,10.8,11.9c4.9,4.1,10.7,28,13.6,34.6c1.4,3.3,4.6,10.2,8.3,17.7
	c4-0.9,8.1-1.3,12.4-1.3c1.6,0,3.2,0.1,4.8,0.2c-0.4-0.9-0.9-1.7-1.3-2.6c-14-30.1-13.2-63-13.2-63c0.4-3.7,0-20,5.4-27
	c5.4-7,5.8-8.3,15.7-11.2c9.9-2.9,51-5.1,82.3-3.5s84.5,11.1,94.8,14.8c10.3,3.7,18.1,7.8,25.2,16.9c7,9.1,11.1,13.6,9.9,25.6
	c-1.2,11.9-12.3,54-16.9,63c-3.8,7.6-9.4,15.5-20.8,20.5h2.6c4.4,0,8,3.6,8,8v5c12.3-6,20.5-22.2,25-32.3
	c4.9-11.1,9.5-24.3,13.6-35.8s10.7-31.7,14-34.6s10.7-1.6,10.7-1.6s7.4-1.2,10.7,1.6c3.3,2.9,9.9,23.1,14,34.6S381,228.9,386,240
	s14.4,29.7,28.9,33.8c1.5,0.4,3.4,0.9,5.5,1.4v-16.4c-1.6-0.8-3-1.6-4.4-2.4h-6.8c-4.4,0-8-3.6-8-8v-8.5c-0.2-0.3-0.3-0.7-0.5-1
	c-4.5-9.1-15.7-51.1-16.9-63s2.9-16.5,9.9-25.6s14.8-13.2,25.1-16.9c10.3-3.7,63.5-13.2,94.8-14.8c31.3-1.6,72.4,0.6,82.3,3.5
	c9.9,2.9,10.3,4.2,15.7,11.2c5.4,7,4.9,23.2,5.4,27c0,0,0.8,33-13.2,63c-6.6,14.2-19.4,29.3-29.7,33c-5.4,1.9-15.5,4.6-28.1,6.9
	c0.8,1.2,1.3,2.7,1.3,4.3v11c17.6-2.8,30.2-6.3,37.6-8.6c11.9-3.7,17.3-10.7,23.9-21.8c6.6-11.1,16.5-32.1,19.4-38.7
	c2.9-6.6,8.7-30.5,13.6-34.6c5-4.1,10.4-10.7,10.8-11.9c0.4-1.2,2.1-5.4,2.1-5.4c0.5-5.4,0.9-10.9,1.4-16.3
	C656.6,131.6,658.2,124.3,654.9,119.6z M485.2,268.6c-13.1-0.2-26-1.3-37-2.9v13.9c11.2,1.3,23.9,2.3,37,2.6V268.6z M628.9,307.9
	l-0.5-0.1l-0.2,0.5c-0.6,2.2-1.7,4-3.3,5.2c-1.6,1.3-3.5,1.9-5.6,1.9c-3.1,0-5.4-1-7.1-3c-1.7-2-2.6-4.9-2.6-8.5s0.9-6.6,2.6-8.8
	c1.8-2.2,4-3.2,6.9-3.2c4.3,0,7.2,1.9,8.6,5.7l0.2,0.4l0.4-0.1l4.6-1.1l0.5-0.1l-0.1-0.5c-0.9-3.1-2.6-5.5-4.9-7.1
	c-2.4-1.6-5.3-2.5-8.8-2.5c-4.9,0-8.9,1.5-11.8,4.5c-3,3-4.5,7.1-4.5,12c0,5.5,1.4,9.9,4.3,13.1c2.9,3.2,6.8,4.8,11.8,4.8
	c3.6,0,6.7-1,9.3-2.9c2.6-2,4.4-4.7,5.3-8.2l0.1-0.5l-0.5-0.1L628.9,307.9z M649.2,303.6c0,8.2-3,15.3-8.8,21.2s-12.9,8.8-21.1,8.8
	c-8.2,0-15.4-3-21.2-8.8c-5.9-5.8-8.8-13-8.8-21.2s3-15.3,8.8-21.2c5.9-5.8,13-8.8,21.2-8.8s15.3,3,21.1,8.8
	C646.3,288.3,649.2,295.4,649.2,303.6z M636.3,320.6c4.7-4.7,7.1-10.5,7.1-17c0-6.6-2.4-12.3-7.1-17c-4.7-4.7-10.4-7.1-17-7.1
	s-12.3,2.4-17,7.1c-4.7,4.7-7.1,10.4-7.1,17s2.4,12.3,7.1,17c4.7,4.7,10.4,7.1,17,7.1C625.9,327.7,631.6,325.3,636.3,320.6z
	 M87.7,233.5c-12.4,0-23.1,4.3-31.9,12.7c-8.8,8.4-13.3,18.7-13.3,30.6c0,12.1,4.5,22.5,13.5,31c8.9,8.5,19.9,12.9,32.5,12.9
	c8.6,0,16.9-2,24.2-5.9l0.5-0.3v-0.2v-12.6v-1.1l-0.9,0.7c-7.9,4.5-15.6,6.7-22.7,6.7c-9.7,0-18-3-24.4-8.9s-9.7-13.4-9.7-22.2
	c0-8.7,3.2-16,9.5-22c6.3-5.9,14.2-9,23.4-9c7.2,0,15.4,2.1,24,6.4l0.9,0.4v-0.8v-12.6v-0.2l-0.5-0.2
	C104.2,235.3,95.7,233.5,87.7,233.5z M196.6,317.3l0.5,1h-0.9h-12.7l0,0l-0.4-0.6l-22.3-33.4h-1.6v33.1v0.9h-0.6h-11h-0.4v-0.9
	v-80.9v-0.2h0.4h17.5c8.8,0,16.1,2.1,21.6,6.5c5.6,4.4,8.4,10,8.4,16.9c0,5.5-1.8,10.4-5.4,14.7c-3.5,4.1-8.9,7-16.1,8.8
	L196.6,317.3z M160.3,274c15,0,22.3-4.5,22.3-13.7c0-3.3-0.9-6-2.7-8.1c-1.8-2.1-4.3-3.5-7.3-4.3c-3-0.7-7.3-1.1-13.3-1.2v27.2
	C159.2,274,159.9,274,160.3,274z M179.2,269.6c0.2-0.2,0.4-0.3,0.5-0.5C179.5,269.2,179.4,269.4,179.2,269.6z M182.5,264.3
	c0.1-0.2,0.1-0.4,0.2-0.6C182.6,263.9,182.6,264.1,182.5,264.3z M181.9,265.8c0.1-0.2,0.2-0.4,0.3-0.6
	C182.1,265.4,182,265.6,181.9,265.8z M181.2,267.2c0.1-0.2,0.2-0.4,0.4-0.6C181.5,266.8,181.3,267,181.2,267.2z M180.3,268.4
	c0.1-0.2,0.3-0.3,0.4-0.5C180.6,268.1,180.4,268.2,180.3,268.4z M183,262.1c0,0.2-0.1,0.4-0.1,0.5
	C182.9,262.4,182.9,262.2,183,262.1z M160.9,274.5c0.5,0,0.9,0,1.4,0C161.8,274.5,161.4,274.5,160.9,274.5z M177.9,270.6
	c0.2-0.1,0.4-0.3,0.6-0.4C178.3,270.3,178.1,270.4,177.9,270.6z M176.4,271.5c0.2-0.1,0.5-0.3,0.7-0.4
	C176.9,271.2,176.7,271.3,176.4,271.5z M174.7,272.2c0.3-0.1,0.5-0.2,0.8-0.3C175.3,272,175,272.1,174.7,272.2z M172.9,272.9
	c0.3-0.1,0.6-0.2,0.9-0.3C173.5,272.7,173.2,272.8,172.9,272.9z M170.9,273.4c0.3-0.1,0.7-0.2,1-0.2
	C171.5,273.3,171.2,273.4,170.9,273.4z M168.6,273.9c0.4-0.1,0.7-0.1,1.1-0.2C169.4,273.8,169,273.8,168.6,273.9z M166.2,274.2
	c0.4,0,0.8-0.1,1.2-0.1C167,274.1,166.6,274.2,166.2,274.2z M163.7,274.4c0.4,0,0.9,0,1.3-0.1C164.5,274.3,164.1,274.4,163.7,274.4z
	 M231.4,236.3h-0.2v0.2v80.9v0.9h0.2h44.8l0,0v-0.9v-10.9v-0.2l0,0h-33v-27h33l0,0v-0.6v-10.9v-0.5l0,0h-33v-19h33l0,0v-0.7v-11
	v-0.3l0,0H231.4z M352.6,333.3l-6.5-14h-25.6l27.9-61.8l31.3,68.8h16.2l-47.2-104.2l-0.6-1.4l-0.6,1.3l-49.4,110l-0.4,1.4h0.7
	L352.6,333.3L352.6,333.3z M409.6,236.3h-0.4v0.2v11v0.7h0.4h18.6v69.1v0.9h0.6h10.9h0.5v-0.9v-69H459h0.2v-0.7v-11v-0.3H459H409.6z
	 M538.8,236.3H494h-0.8v0.2v80.9v0.9h0.8h44.8h0.4v-0.9v-10.9v-0.2h-0.4h-33.6v-27h33.6h0.4v-0.6v-10.9v-0.5h-0.4h-33.6v-19h33.6
	h0.4v-0.7v-11v-0.3H538.8z M370.2,89.3V68.4c0-2.9,1-5.3,2.6-7.3s3.8-3,6.2-3c4,0,6.2,2.4,6.2,7.3v23.9h8V69.1
	c0-3.1,0.6-5.7,2.2-7.7c1.6-2.1,3.5-3.1,5.8-3.1c4,0,6,2,6,6.1v25h8v-27c0-3-1.2-5.6-3.3-7.8c-2.1-2.2-4.7-3.3-7.7-3.3
	c-2.4,0-4.5,0.6-6.4,1.8c-1.8,1.2-3.7,3.2-5.7,5.9c-1.1-2.7-2.5-4.6-4.1-5.9c-1.6-1.2-3.8-1.8-6.6-1.8c-2.2,0-4.2,0.5-5.9,1.6
	s-3.4,2.8-5.4,5.1v-5.7h-7v37H370.2z M456.2,59.8c-2-2.5-3.6-4.6-6.2-6.2s-5.4-2.4-8.3-2.4c-4.7,0-8.8,1.9-12.3,5.8
	s-5.2,8.4-5.2,13.5c0,5.5,1.7,10.1,5.2,13.9s7.8,5.7,12.6,5.7c5.6,0,10.3-2.8,14.3-8.4v7.5h7v-37h-7L456.2,59.8L456.2,59.8z
	 M453.3,79.5c-2.4,2.4-5.3,3.7-8.7,3.7s-6.3-1.2-8.7-3.7c-2.4-2.4-3.6-5.4-3.6-8.9c0-3.2,1.2-6,3.7-8.4c2.5-2.4,5.3-3.6,8.6-3.6
	c3.4,0,6.3,1.2,8.7,3.6c2.4,2.4,3.6,5.3,3.6,8.7C457,74.2,455.7,77.1,453.3,79.5z M475.2,74.3h21v-7h-21V74.3z M522.2,80L510,106.3
	h8.1l25-54h-8l-9.3,20.1l-13.4-20.1h-8.8L522.2,80z M583.2,59.8c-2-2.5-3.6-4.6-6.2-6.2c-2.6-1.6-5.4-2.4-8.3-2.4
	c-4.7,0-8.8,1.9-12.3,5.8s-5.2,8.4-5.2,13.5c0,5.5,1.7,10.1,5.2,13.9s7.7,5.7,12.6,5.7c5.6,0,10.2-2.8,14.2-8.4v7.5h8v-37h-8V59.8
	L583.2,59.8z M580.4,79.5c-2.4,2.4-5.3,3.7-8.7,3.7s-6.3-1.2-8.7-3.7c-2.4-2.4-3.6-5.4-3.6-8.9c0-3.2,1.2-6,3.7-8.4
	c2.5-2.4,5.3-3.6,8.6-3.6c3.4,0,6.3,1.2,8.7,3.6c2.4,2.4,3.6,5.3,3.6,8.7C584,74.2,582.8,77.1,580.4,79.5z M602.2,41.3h4.8
	c-0.1,3-1.6,6.2-4.5,9.1l3.6,3.3c1.8-1.7,3.3-3.6,4.4-5.9c1.1-2.2,1.7-4.4,1.7-6.4V31.3h-10V41.3z M633.1,51.2c-3.5,0-6.4,1-8.7,3.1
	c-2.3,2-3.5,4.6-3.5,7.7c0,2.5,0.8,4.6,2.4,6.2c1.6,1.7,4.6,3.4,8.8,5s6.4,3.5,6.4,5.6c0,1.2-0.6,2.2-1.8,3.1s-2.6,1.3-4.2,1.3
	c-2.3,0-4.6-1-6.7-3.1l-6.1,3c3.3,4.8,7.6,7.3,12.9,7.3c3.4,0,6.4-1.2,9-3.5c2.5-2.3,3.8-5,3.8-8.1c0-2.7-0.9-4.9-2.6-6.8
	c-1.8-1.9-4.7-3.6-8.7-5.2s-6-3.2-6-4.9c0-2.3,1.6-3.5,4.7-3.5c1.3,0,2.5,0.2,3.5,0.7s2.2,1.2,3.5,2.2l5.2-4.6
	C640.5,53,636.6,51.2,633.1,51.2z"/>
</svg>
