<svg xmlns="http://www.w3.org/2000/svg" width="285.7" height="112.68" viewBox="0 0 285.7 112.68">
  <g id="グループ_2" data-name="グループ 2" transform="translate(-817 -427.32)">
    <path id="パス_3" data-name="パス 3" d="M-138.85-10.8c0,6.2,4.1,10.8,12,10.8,6.8,0,11.6-4.6,11.6-10.8v-57a4.446,4.446,0,0,1,.8-2.8l3.1-2.9a1.382,1.382,0,0,0,.5-.9.576.576,0,0,0-.6-.6h-13.7a.576.576,0,0,0-.6.6,1.382,1.382,0,0,0,.5.9l3.1,2.9a3.91,3.91,0,0,1,.8,2.8v54.4c0,4.4-1,8.4-4.7,8.4-4.7,0-5.1-4-5.1-8.4V-67.8a4.446,4.446,0,0,1,.8-2.8l3.1-2.9a1.382,1.382,0,0,0,.5-.9.576.576,0,0,0-.6-.6h-15.3a.576.576,0,0,0-.6.6,1.382,1.382,0,0,0,.5.9l3.1,2.9a3.91,3.91,0,0,1,.8,2.8Zm52.2-63.1c0-.6-.2-1.1-.7-1.1-.6,0-1.2.5-2.1,1.3a5.515,5.515,0,0,1-2.3,1.6,3.618,3.618,0,0,1-1.5-.6,9.916,9.916,0,0,0-5.6-2.3c-5.1,0-9.2,3-9.2,12.5,0,7.3,2,14.9,7.4,26.3,5.7,12,8.7,19.3,8.7,26,0,3.1-1,5.2-2.9,5.2-5.9,0-9-12.7-10.8-20.7-.1-.3-.3-.7-.6-.7-.4,0-.5.4-.5.7V-.5c0,.3.1.5.5.5s.8-.4,1.2-.7c2-1.5,2.8-2.2,3.2-2.2a5.536,5.536,0,0,1,2,1A9.442,9.442,0,0,0-94.25,0c3.7,0,9.2-3.2,9.2-13.8,0-7.9-.8-11.2-7.8-26-7.4-15.7-8.7-20.6-8.7-25.5,0-2.6.2-4.7,2.7-4.7,4.6,0,9.4,12.6,11,20.7.1.4.3.7.6.7.4,0,.6-.2.6-.5Zm24.4,67.7a2.413,2.413,0,0,1-.5,2l-2.7,2.7c-.3.3-.7.6-.7.9s.2.6.7.6h14.4c.5,0,.7-.3.7-.6s-.3-.6-.6-.9l-2.9-2.6a4.137,4.137,0,0,1-1.1-2.7l-9.5-67.1c-.1-.6-.4-1.1-.9-1.1h-3.7c-.5,0-.7.4-.8.9l-9.1,67.2a4.147,4.147,0,0,1-.8,2.5l-2.8,2.8c-.3.3-.7.7-.7,1a.576.576,0,0,0,.6.6h11.5c.5,0,.7-.3.7-.6s-.6-.7-1-1.2l-2.2-2.3a2.273,2.273,0,0,1-.5-1.8l1.5-11c.1-.4.3-.7.6-.7h7.4c.5,0,.8.4.9.9Zm-9.2-16.7c-.2,0-.4-.2-.3-.6l3.3-24.6h.2l3.5,24.5c.1.4-.1.7-.4.7Zm40,4.6c0,9.5-2.2,13.3-5.3,13.3-3.6,0-4.8-5.6-4.8-34.4,0-21.1,1.2-30.6,5.4-30.6,4.4,0,8.7,12.9,10.8,20.4.2.6.5,1,.9,1,.3,0,.5-.3.5-.7v-24c0-1-.2-1.7-.7-1.7s-1.1.5-2,1.3a5.8,5.8,0,0,1-2.5,1.6,3.168,3.168,0,0,1-1.5-.6,9.616,9.616,0,0,0-6.3-2.3c-12.3,0-12.8,23.2-12.8,35.5,0,16.7.5,39.5,13,39.5,2.2,0,4.2-1.2,6.3-3.1a1.616,1.616,0,0,1,1-.4,1.433,1.433,0,0,1,1,.4l3,2.7a1.528,1.528,0,0,0,1,.4.472.472,0,0,0,.5-.5V-31.9a2.459,2.459,0,0,1,1-2.2l2.9-2.4c.3-.4.5-.6.5-1s-.3-.6-.7-.6h-14.8c-.5,0-.8.2-.8.6a1.217,1.217,0,0,0,.5,1l2.8,2.4a2.656,2.656,0,0,1,1.1,2.2Zm28-56.7c-12,0-13.3,21.1-13.3,35.5,0,18.9,1.3,39.5,13.3,39.5C8.65,0,9.95-20.6,9.95-39.5,9.95-53.9,8.65-75-3.45-75Zm0,5c3,0,5.2,8.4,5.2,30.6C1.75-13.4-.45-5-3.45-5c-2.9,0-5.1-8.4-5.1-34.4C-8.55-61.6-6.35-70-3.45-70ZM18.05-7.2a4.277,4.277,0,0,1-.9,2.8l-2.5,2.9c-.2.3-.7.6-.7,1a.562.562,0,0,0,.6.5h13.2a.562.562,0,0,0,.6-.5c0-.4-.4-.7-.7-1l-2.7-3a3.474,3.474,0,0,1-1-2.7V-57h.2L35.85-2.5c.3,1.5,1.1,2.5,2,2.5h4.2c.7,0,1-.4,1-1.1V-67.8a4.277,4.277,0,0,1,.9-2.8l2.5-2.9c.3-.3.7-.6.7-1a.562.562,0,0,0-.6-.5H33.35a.562.562,0,0,0-.6.5c0,.4.5.7.7,1l2.8,3a3.425,3.425,0,0,1,.9,2.7v37.5h-.2l-9.2-43c-.2-1-.5-1.7-1.2-1.7h-12a.562.562,0,0,0-.6.5c0,.4.5.7.7,1l2.5,2.9a4.277,4.277,0,0,1,.9,2.8ZM64.45-75c-12,0-13.3,21.1-13.3,35.5,0,18.9,1.3,39.5,13.3,39.5,12.1,0,13.4-20.6,13.4-39.5C77.85-53.9,76.55-75,64.45-75Zm0,5c3,0,5.2,8.4,5.2,30.6,0,26-2.2,34.4-5.2,34.4-2.9,0-5.1-8.4-5.1-34.4C59.35-61.6,61.55-70,64.45-70Zm18-5a.562.562,0,0,0-.6.5c0,.4.5.7.7,1l2.5,2.9a4.277,4.277,0,0,1,.9,2.8V-7.2a4.277,4.277,0,0,1-.9,2.8l-2.5,2.9c-.2.3-.7.6-.7,1a.562.562,0,0,0,.6.5h12.3a.562.562,0,0,0,.6-.5c0-.4-.4-.7-.7-1.1l-2.1-2.7a4.492,4.492,0,0,1-.7-2.9V-55.6h.2l8.1,54.7c.1.5.2.9.5.9h2.2c.5,0,.7-.3.8-.8l7.6-54.8h.2V-7.2a4.492,4.492,0,0,1-.7,2.9l-2.1,2.7c-.3.4-.7.7-.7,1.1,0,.2.1.5.6.5h14a.562.562,0,0,0,.6-.5c0-.4-.4-.7-.7-1l-2.5-2.9a4.232,4.232,0,0,1-.8-2.8V-67.8a4.232,4.232,0,0,1,.8-2.8l2.5-2.9c.3-.3.7-.6.7-1a.562.562,0,0,0-.6-.5h-12.5c-.7,0-1,.7-1.1,1.7L102.85-30h-.2l-6.6-43.3c-.1-1-.5-1.7-1.4-1.7Zm47.7,67.8a3.658,3.658,0,0,1-.9,2.8l-3,2.9c-.2.3-.7.6-.7.9a.576.576,0,0,0,.6.6h15.7a.576.576,0,0,0,.6-.6c0-.3-.5-.6-.7-.9l-3-2.9a3.658,3.658,0,0,1-.9-2.8V-67.8a3.658,3.658,0,0,1,.9-2.8l3-2.9c.2-.3.7-.6.7-.9a.576.576,0,0,0-.6-.6h-15.7a.576.576,0,0,0-.6.6c0,.3.5.6.7.9l3,2.9a3.658,3.658,0,0,1,.9,2.8Z" transform="translate(960.25 540)" fill="#333"/>
    <g id="グループ_1" data-name="グループ 1" transform="translate(0.17)">
      <path id="パス_1" data-name="パス 1" d="M956.63,416.239s-42.677-.554-43.786-27.158C913.953,390.19,947.762,385.756,956.63,416.239Z" transform="matrix(0.951, 0.309, -0.309, 0.951, 178.288, -224.802)" fill="#333"/>
      <path id="パス_2" data-name="パス 2" d="M912.844,416.241s42.68-.554,43.789-27.16C955.524,390.19,921.713,385.755,912.844,416.241Z" transform="translate(-32.136 318.177) rotate(-16)" fill="#333"/>
    </g>
  </g>
</svg>
